HIERARCHY
ROOT Hips
{
	OFFSET 0.00000 0.00000 0.00000
	CHANNELS 6 Xposition Yposition Zposition Zrotation Yrotation Xrotation 
	JOINT LHipJoint
	{
		OFFSET 0 0 0
		CHANNELS 3 Zrotation Yrotation Xrotation
		JOINT LeftHip
		{
			OFFSET 1.44361 -1.63093 0.70831
			CHANNELS 3 Zrotation Yrotation Xrotation
			JOINT LeftKnee
			{
				OFFSET 2.20103 -6.04728 0.00000
				CHANNELS 3 Zrotation Yrotation Xrotation
				JOINT LeftAnkle
				{
					OFFSET 2.54154 -6.98283 0.00000
					CHANNELS 3 Zrotation Yrotation Xrotation
					JOINT LeftToe
					{
						OFFSET 0.05971 -0.16406 1.77582
						CHANNELS 3 Zrotation Yrotation Xrotation
						End Site
						{
							OFFSET 0.00000 -0.00000 0.90832
						}
					}
				}
			}
		}
	}
	JOINT RHipJoint
	{
		OFFSET 0 0 0
		CHANNELS 3 Zrotation Yrotation Xrotation
		JOINT RightHip
		{
			OFFSET -1.65838 -1.63093 0.70830
			CHANNELS 3 Zrotation Yrotation Xrotation
			JOINT RightKnee
			{
				OFFSET -2.26926 -6.23475 0.00000
				CHANNELS 3 Zrotation Yrotation Xrotation
				JOINT RightAnkle
				{
					OFFSET -2.34808 -6.45129 0.00000
					CHANNELS 3 Zrotation Yrotation Xrotation
					JOINT RightToe
					{
						OFFSET -0.18633 -0.51195 1.68539
						CHANNELS 3 Zrotation Yrotation Xrotation
						End Site
						{
							OFFSET -0.00000 -0.00000 0.88927
						}
					}
				}
			}
		}
	}
	JOINT lowerback
	{
		OFFSET 0 0 0
		CHANNELS 3 Zrotation Yrotation Xrotation
		JOINT Chest
		{
			OFFSET -0.10393 2.01691 0.06920
			CHANNELS 3 Zrotation Yrotation Xrotation
			JOINT Chest2
			{
				OFFSET 0.04092 2.01302 -0.05283
				CHANNELS 3 Zrotation Yrotation Xrotation
				JOINT lowerneck
				{
					OFFSET 0 0 0
					CHANNELS 3 Zrotation Yrotation Xrotation
					JOINT Neck
					{
						OFFSET -0.02870 1.58978 -0.03113
						CHANNELS 3 Zrotation Yrotation Xrotation
						JOINT Head
						{
							OFFSET 0.11532 1.54326 -0.29195
							CHANNELS 3 Zrotation Yrotation Xrotation
							End Site
							{
								OFFSET 0.04056 1.59999 -0.09535
							}
						}
					}
				}
				JOINT LeftCollar
				{
					OFFSET 0 0 0
					CHANNELS 3 Zrotation Yrotation Xrotation
					JOINT LeftShoulder
					{
						OFFSET 3.30641 1.15764 0.01104
CHANNELS 3 Zrotation Xrotation Yrotation
						JOINT LeftElbow
						{
OFFSET 0 -4.632080 0.000000
CHANNELS 3 Zrotation Xrotation Yrotation
							JOINT LeftWrist
							{
OFFSET 0 -3.419240 -0.000000
CHANNELS 3 Zrotation Xrotation Yrotation
								JOINT lhand
								{
									OFFSET 0 0 0
CHANNELS 3 Zrotation Xrotation Yrotation
									JOINT LFingers
									{
OFFSET 0 -0.625370 -0.000000
CHANNELS 3 Zrotation Xrotation Yrotation
										End Site
										{
OFFSET 0 -0.504190 -0.000000
										}
									}
								}
								JOINT LThumb
								{
OFFSET 0 0.000000 0.000000
CHANNELS 3 Zrotation Xrotation Yrotation
									End Site
									{
OFFSET 0 -0.511890 0.511890
									}
								}
							}
						}
					}
				}
				JOINT RightCollar
				{
					OFFSET 0 0 0
					CHANNELS 3 Zrotation Yrotation Xrotation
					JOINT RightShoulder
					{
						OFFSET -3.78081 1.02180 -0.16609
CHANNELS 3 Zrotation Xrotation Yrotation
						JOINT RightElbow
						{
OFFSET 0 -4.406400 -0.000000
CHANNELS 3 Zrotation Xrotation Yrotation
							JOINT RightWrist
							{
OFFSET 0 -3.446750 0.000000
CHANNELS 3 Zrotation Xrotation Yrotation
								JOINT rhand
								{
									OFFSET 0 0 0
CHANNELS 3 Zrotation Xrotation Yrotation
									JOINT RFingers
									{
OFFSET 0 -0.513670 -0.000000
CHANNELS 3 Zrotation Xrotation Yrotation
										End Site
										{
OFFSET 0 -0.414140 -0.000000
										}
									}
								}
								JOINT RThumb
								{
OFFSET 0 0.000000 0.000000
CHANNELS 3 Zrotation Xrotation Yrotation
									End Site
									{
OFFSET 0 -0.420460 0.420460
									}
								}
							}
						}
					}
				}
			}
		}
	}
}
MOTION
Frames: 6
Frame Time: 0.008333333333333333
8.579754 21.195397 11.992865 179.225147 10.087570 -166.026848 0.000000 0.000000 0.000000 -8.338658 -15.811403 -62.603474 8.026706 16.138299 52.657887 1.702976 -1.362815 -24.291099 10.842885 -17.857287 -62.270191 0.000000 0.000000 0.000000 20.799604 5.215213 5.040516 -0.886529 -6.001489 16.788873 -0.105539 4.134159 -5.945668 -1.738252 8.297697 -23.622175 -9.602824 4.551405 5.182432 -2.012831 6.072071 3.944487 2.931434 3.042410 0.482123 -3.927305 -0.484416 -5.306905 5.929063 -2.139151 17.835061 2.360369 -1.179667 6.365931 0.000000 0.000000 0.000000 6.566305 0.715129 2.934359 6.576994 -11.220771 0.647036 22.984802 34.416240 13.946174 0.000000 0.000000 0.000000 -7.125000 0.000000 0.000000 -3.033961 14.898415 -2.154737 0.000000 0.000000 0.000000 1.703633 -15.913863 27.451096 -21.209074 -32.069050 -6.161666 -18.080279 11.788154 33.559478 0.000000 0.000000 0.000000 7.125000 0.000000 0.000000 18.218362 63.996981 -8.526280
8.576502 21.336715 11.776848 179.303514 9.728330 -165.466474 0.000000 0.000000 0.000000 -8.889933 -15.739803 -61.436702 7.707181 15.898016 51.498380 1.778806 -1.964956 -24.683382 10.849556 -17.860678 -62.292129 0.000000 0.000000 0.000000 20.685151 4.824468 4.113489 -0.974216 -6.281250 17.603416 -0.029718 2.196761 -2.787515 -1.692111 8.192661 -23.300922 -9.913218 4.409462 5.124214 -2.172317 5.874668 3.827760 2.949382 2.948305 0.406615 -3.874554 -0.523496 -4.979427 6.259485 -2.257217 17.574260 2.448397 -1.217975 6.234311 0.000000 0.000000 0.000000 7.073758 -0.000431 -0.213741 6.950246 -11.836763 0.722001 23.389038 31.548703 14.266659 0.000000 0.000000 0.000000 -7.125000 0.000000 0.000000 -2.777586 14.507093 -1.994594 0.000000 0.000000 0.000000 1.787474 -14.845840 25.795974 -20.205068 -30.882831 -5.638938 -17.900018 12.450401 34.126012 0.000000 0.000000 0.000000 7.125000 0.000000 0.000000 18.959973 64.478601 -9.099932
8.569934 21.478105 11.561439 179.521122 9.218807 -164.903082 0.000000 0.000000 0.000000 -9.216732 -15.828940 -60.260569 7.380303 15.641765 50.294684 1.837159 -2.648050 -24.938727 10.794743 -17.833085 -62.113231 0.000000 0.000000 0.000000 20.780858 4.581122 2.831418 -1.150295 -6.797144 19.120652 -0.007266 0.339417 0.023917 -1.598849 7.972702 -22.632489 -9.969713 4.240532 5.036632 -2.266162 5.648526 3.718853 2.902344 2.838897 0.373128 -3.859382 -0.583387 -4.624278 6.610434 -2.402137 17.301120 2.547596 -1.272588 6.096755 0.000000 0.000000 0.000000 7.584814 -0.755045 -3.497507 7.336563 -12.471022 0.803545 24.296517 28.368804 15.288957 0.000000 0.000000 0.000000 -7.125000 0.000000 0.000000 -2.237317 13.288851 -1.655995 0.000000 0.000000 0.000000 1.809082 -13.719790 24.000988 -19.251843 -29.724235 -5.158148 -17.779140 13.231940 34.479950 0.000000 0.000000 0.000000 7.125000 0.000000 0.000000 19.441175 64.775833 -9.470903
8.560251 21.617219 11.349091 179.780269 8.652249 -164.344192 0.000000 0.000000 0.000000 -9.431624 -16.045205 -59.069554 7.049736 15.371484 49.058385 1.883452 -3.401814 -25.106694 10.685840 -17.777623 -61.756764 0.000000 0.000000 0.000000 20.942407 4.468892 1.228706 -1.409759 -7.493458 21.193584 -0.025401 -1.390620 2.543897 -1.464335 7.643693 -21.638892 -9.927641 4.022454 4.900422 -2.291642 5.366296 3.647136 2.881602 2.697050 0.413494 -3.712657 -0.566933 -4.689756 6.694448 -2.402887 17.256258 2.549317 -1.255383 6.093835 0.000000 0.000000 0.000000 7.996277 -1.583897 -6.665067 7.770902 -13.179704 0.900266 25.229423 25.457080 16.190931 0.000000 0.000000 0.000000 -7.125000 0.000000 0.000000 -1.678587 12.189441 -1.285524 0.000000 0.000000 0.000000 1.744948 -12.614168 22.267618 -18.343246 -28.589376 -4.714952 -17.859987 14.264261 34.823487 0.000000 0.000000 0.000000 7.125000 0.000000 0.000000 19.696278 65.117285 -9.755077
8.547122 21.752529 11.142037 179.960392 8.101123 -163.843023 0.000000 0.000000 0.000000 -9.694102 -16.372301 -57.807643 6.719795 15.090067 47.804170 1.924541 -4.177193 -25.248842 10.537761 -17.701195 -61.270750 0.000000 0.000000 0.000000 21.007437 4.446587 -0.590304 -1.743134 -8.296735 23.626576 -0.075762 -3.069199 4.925028 -1.311160 7.250258 -20.460187 -9.940056 3.746115 4.753972 -2.265974 5.012084 3.631713 2.950708 2.514411 0.518667 -3.529927 -0.471038 -5.144158 6.545807 -2.244089 17.384531 2.481361 -1.161385 6.202341 0.000000 0.000000 0.000000 8.261433 -2.481113 -9.603874 8.292661 -14.024936 1.023057 25.815920 23.176288 16.389673 0.000000 0.000000 0.000000 -7.125000 0.000000 0.000000 -1.305051 11.889879 -1.008721 0.000000 0.000000 0.000000 1.592090 -11.554848 20.704884 -17.469486 -27.469864 -4.303145 -18.124721 15.626286 35.318737 0.000000 0.000000 0.000000 7.125000 0.000000 0.000000 19.906354 65.649663 -10.107549
8.529805 21.883914 10.941790 179.988035 7.591683 -163.504806 0.000000 0.000000 0.000000 -10.128825 -16.805479 -56.365830 6.397839 14.802827 46.557808 1.965761 -4.814358 -25.431040 10.388896 -17.622739 -60.780416 0.000000 0.000000 0.000000 20.909711 4.553662 -2.536271 -2.166231 -9.201710 26.430038 -0.160154 -4.955165 7.404256 -1.155629 6.824560 -19.196995 -10.065424 3.447330 4.709744 -2.223290 4.622403 3.670738 3.094288 2.313513 0.621027 -4.084733 -0.527625 -4.827649 7.022075 -2.292220 16.884360 2.722096 -1.186426 6.000061 0.000000 0.000000 0.000000 8.457940 -3.354705 -12.557013 8.948120 -15.077556 1.186881 26.075924 21.281541 16.048123 0.000000 0.000000 0.000000 -7.125000 0.000000 0.000000 -1.101795 12.224519 -0.843758 0.000000 0.000000 0.000000 1.379810 -10.471903 19.183314 -16.631260 -26.368544 -3.922488 -18.270414 17.248183 35.860779 0.000000 0.000000 0.000000 7.125000 0.000000 0.000000 20.322378 66.190810 -10.577882
